<svg width="160" height="43" viewBox="0 0 160 43" fill="none" xmlns="http://www.w3.org/2000/svg">
<path d="M64.1311 18.4703C64.0411 18.4066 63.936 18.3527 63.821 18.3086C63.9611 18.2448 64.0761 18.1566 64.1611 18.0438C64.2812 17.882 64.3412 17.6859 64.3412 17.4457C64.3412 17.2299 64.2912 17.0436 64.1911 16.8867C64.0911 16.7298 63.941 16.6122 63.751 16.5288C63.5559 16.4455 63.3208 16.4062 63.0357 16.4062H61.2051V20.6031H63.0957C63.3158 20.6031 63.5159 20.5786 63.696 20.5197C63.876 20.4658 64.0311 20.3874 64.1611 20.2844C64.2912 20.1814 64.3962 20.0491 64.4612 19.8922C64.5313 19.7353 64.5613 19.5539 64.5613 19.3431C64.5613 19.1567 64.5213 18.9851 64.4462 18.8381C64.3762 18.6959 64.2662 18.5733 64.1311 18.4703ZM62.0704 17.1907H62.8707C63.0657 17.1907 63.2158 17.2299 63.3108 17.3084C63.4059 17.3868 63.4559 17.5045 63.4559 17.6516C63.4559 17.7447 63.4359 17.8232 63.3909 17.8918C63.3508 17.9605 63.2858 18.0144 63.2058 18.0536C63.1258 18.0928 63.0307 18.1124 62.9207 18.1124H62.0654V17.1907H62.0704ZM63.5959 19.5931C63.5459 19.6715 63.4809 19.7304 63.3858 19.7696C63.2958 19.8088 63.1858 19.8284 63.0557 19.8284H62.0704V18.8283H63.0307C63.1658 18.8283 63.2758 18.8479 63.3708 18.8871C63.4659 18.9263 63.5409 18.9802 63.5909 19.0538C63.6409 19.1273 63.6709 19.2156 63.6709 19.3185C63.6659 19.4215 63.6459 19.5147 63.5959 19.5931Z" fill="#16315E"/>
<path d="M67.7077 18.9391C67.7077 19.1058 67.6676 19.2578 67.5926 19.3901C67.5126 19.5225 67.4076 19.6304 67.2725 19.7088C67.1375 19.7873 66.9874 19.8265 66.8224 19.8265C66.6623 19.8265 66.5173 19.7873 66.3872 19.7088C66.2572 19.6304 66.1521 19.5225 66.0771 19.3901C66.0021 19.2578 65.9621 19.1058 65.9621 18.9391V16.4043H65.0518V18.993C65.0518 19.3068 65.1268 19.5911 65.2818 19.8412C65.4369 20.0912 65.642 20.2873 65.912 20.4295C66.1771 20.5717 66.4822 20.6404 66.8224 20.6404C67.1575 20.6404 67.4626 20.5717 67.7327 20.4295C68.0028 20.2873 68.2128 20.0912 68.3629 19.8412C68.5129 19.5911 68.588 19.3068 68.588 18.993V16.4043H67.7077V18.9391Z" fill="#16315E"/>
<path d="M69.2432 17.1799H69.9484V19.8323H69.2432V20.607H71.5539V19.8323H70.8537V17.1799H71.5539V16.4102H69.2432V17.1799Z" fill="#16315E"/>
<path d="M73.1444 16.4102H72.2441V20.607H75.0551V19.798H73.1444V16.4102Z" fill="#16315E"/>
<path d="M78.8158 16.9936C78.6307 16.8073 78.4157 16.6651 78.1656 16.5621C77.9155 16.4592 77.6354 16.4102 77.3253 16.4102H75.5947V20.607H77.3253C77.6354 20.607 77.9155 20.558 78.1706 20.455C78.4257 20.352 78.6408 20.2099 78.8208 20.0236C79.0009 19.8372 79.1409 19.6166 79.2359 19.3568C79.331 19.0969 79.381 18.8175 79.381 18.5086C79.381 18.1948 79.331 17.9153 79.2359 17.6555C79.1359 17.4005 78.9959 17.1799 78.8158 16.9936ZM78.3857 19.043C78.3356 19.2048 78.2556 19.3372 78.1556 19.4499C78.0556 19.5578 77.9305 19.646 77.7855 19.7098C77.6404 19.7735 77.4804 19.8029 77.2953 19.8029H76.5V17.224H77.2953C77.4754 17.224 77.6404 17.2534 77.7855 17.3172C77.9305 17.3809 78.0556 17.4643 78.1556 17.577C78.2556 17.6898 78.3356 17.8222 78.3857 17.984C78.4357 18.1409 78.4657 18.3174 78.4657 18.5135C78.4607 18.7047 78.4357 18.8812 78.3857 19.043Z" fill="#16315E"/>
<path d="M79.7021 17.1799H80.4074V19.8323H79.7021V20.607H82.0129V19.8323H81.3127V17.1799H82.0129V16.4102H79.7021V17.1799Z" fill="#16315E"/>
<path d="M85.553 17.5526C85.553 17.7242 85.553 17.881 85.558 18.0281C85.563 18.1752 85.568 18.3125 85.573 18.44C85.578 18.5723 85.588 18.6949 85.598 18.8175C85.608 18.9401 85.618 19.0577 85.633 19.1754C85.638 19.2048 85.643 19.2391 85.643 19.2686L83.5123 16.4004H82.707V20.5972H83.5923V19.0871C83.5923 19.0087 83.5923 18.9303 83.5873 18.8616C83.5873 18.7881 83.5823 18.7145 83.5773 18.6361C83.5723 18.5576 83.5673 18.4645 83.5573 18.3566C83.5473 18.2488 83.5373 18.1213 83.5223 17.9742C83.5173 17.9154 83.5123 17.8516 83.5023 17.7879L85.618 20.607H86.4383V16.4102H85.553V17.5526Z" fill="#16315E"/>
<path d="M93.586 16.4102H93.1709V20.607H94.0762V18.94H95.7668V18.1654H94.0762V17.2191H96.0168V16.4102H94.0762H93.586Z" fill="#16315E"/>
<path d="M99.1881 18.9391C99.1881 19.1058 99.1481 19.2578 99.0731 19.3901C98.9931 19.5225 98.888 19.6304 98.753 19.7088C98.6179 19.7873 98.4679 19.8265 98.3028 19.8265C98.1428 19.8265 97.9977 19.7873 97.8677 19.7088C97.7376 19.6304 97.6326 19.5225 97.5576 19.3901C97.4825 19.2578 97.4425 19.1058 97.4425 18.9391V16.4043H96.5322V18.993C96.5322 19.3068 96.6073 19.5911 96.7623 19.8412C96.9174 20.0912 97.1224 20.2873 97.3925 20.4295C97.6576 20.5717 97.9627 20.6404 98.3028 20.6404C98.6379 20.6404 98.943 20.5717 99.2131 20.4295C99.4832 20.2873 99.6933 20.0912 99.8433 19.8412C99.9934 19.5911 100.068 19.3068 100.068 18.993V16.4043H99.1881V18.9391Z" fill="#16315E"/>
<path d="M100.479 17.2191H101.709V20.607H102.614V17.2191H103.875V16.4102H100.479V17.2191Z" fill="#16315E"/>
<path d="M106.945 18.9391C106.945 19.1058 106.905 19.2578 106.83 19.3901C106.75 19.5225 106.645 19.6304 106.51 19.7088C106.375 19.7873 106.225 19.8265 106.06 19.8265C105.9 19.8265 105.755 19.7873 105.625 19.7088C105.494 19.6304 105.389 19.5225 105.314 19.3901C105.239 19.2578 105.199 19.1058 105.199 18.9391V16.4043H104.289V18.993C104.289 19.3068 104.364 19.5911 104.519 19.8412C104.674 20.0912 104.879 20.2873 105.149 20.4295C105.414 20.5717 105.72 20.6404 106.06 20.6404C106.395 20.6404 106.7 20.5717 106.97 20.4295C107.24 20.2873 107.45 20.0912 107.6 19.8412C107.75 19.5911 107.825 19.3068 107.825 18.993V16.4043H106.945V18.9391Z" fill="#16315E"/>
<path d="M111.167 18.9204C111.382 18.8027 111.547 18.636 111.672 18.4301C111.792 18.2242 111.857 17.9938 111.857 17.7437C111.857 17.4888 111.797 17.2583 111.672 17.0622C111.552 16.8612 111.382 16.7043 111.167 16.5867C110.952 16.469 110.717 16.4102 110.456 16.4102H108.591V20.607H109.466V19.1018H110.131L110.982 20.607L112.027 20.6119L111.072 18.9694C111.107 18.9498 111.137 18.94 111.167 18.9204ZM109.466 17.1897H110.301C110.431 17.1897 110.551 17.2142 110.652 17.2633C110.752 17.3123 110.827 17.3809 110.882 17.4692C110.932 17.5574 110.962 17.6604 110.962 17.783C110.962 17.8957 110.942 17.9938 110.897 18.0869C110.852 18.1801 110.792 18.2487 110.707 18.2978C110.626 18.3468 110.526 18.3713 110.421 18.3713H109.471V17.1897H109.466Z" fill="#16315E"/>
<path d="M113.398 18.8469H115.069V18.082H113.398V17.1995H115.359V16.4102H112.513V20.607H115.404V19.8127H113.398V18.8469Z" fill="#16315E"/>
<path d="M118.92 18.856C118.85 18.7188 118.755 18.5962 118.63 18.4981C118.505 18.3952 118.35 18.3069 118.175 18.2383C118 18.1647 117.8 18.1059 117.58 18.0667C117.465 18.0422 117.355 18.0128 117.26 17.9833C117.164 17.949 117.079 17.9147 117.014 17.8706C116.944 17.8264 116.894 17.7774 116.859 17.7235C116.824 17.6696 116.804 17.6058 116.804 17.5323C116.804 17.444 116.829 17.3656 116.884 17.3018C116.939 17.2381 117.014 17.1842 117.109 17.1498C117.204 17.1155 117.32 17.1008 117.455 17.1008C117.575 17.1008 117.695 17.1204 117.805 17.1597C117.92 17.1989 118.025 17.2528 118.125 17.3313C118.225 17.4048 118.315 17.5029 118.4 17.6107L118.9 16.9537C118.79 16.8066 118.755 16.7723 118.615 16.6596C118.47 16.5517 118.305 16.4684 118.11 16.4095C117.92 16.3556 117.695 16.3262 117.435 16.3262C117.224 16.3262 117.029 16.3556 116.839 16.4144C116.654 16.4733 116.489 16.5615 116.344 16.6743C116.199 16.787 116.089 16.9194 116.009 17.0714C115.929 17.2234 115.889 17.3901 115.889 17.5715C115.889 17.748 115.914 17.9049 115.969 18.0471C116.024 18.1893 116.104 18.3118 116.219 18.4197C116.329 18.5275 116.474 18.6207 116.639 18.6942C116.809 18.7678 117.004 18.8315 117.229 18.8855C117.335 18.9002 117.43 18.9247 117.52 18.9492C117.61 18.9737 117.69 19.0031 117.76 19.0374C117.83 19.0718 117.895 19.111 117.945 19.1502C117.995 19.1943 118.035 19.2385 118.065 19.2924C118.095 19.3463 118.105 19.4052 118.105 19.4689C118.105 19.5571 118.075 19.6307 118.02 19.6944C117.965 19.7582 117.885 19.8072 117.79 19.8415C117.69 19.8758 117.58 19.8954 117.455 19.8954C117.224 19.8954 117.014 19.8464 116.819 19.7484C116.624 19.6503 116.429 19.464 116.234 19.1943L115.709 19.8905C115.839 20.067 115.949 20.1651 116.114 20.2877C116.279 20.4102 116.469 20.5034 116.684 20.5671C116.899 20.6309 117.134 20.6652 117.4 20.6652C117.72 20.6652 118 20.6113 118.245 20.5083C118.485 20.4004 118.675 20.2484 118.81 20.0474C118.945 19.8464 119.015 19.6062 119.015 19.3218C119.02 19.1502 118.985 18.9933 118.92 18.856Z" fill="#16315E"/>
<path d="M90.5511 18.351H89.2106V19.1158H90.421C90.2009 19.562 89.7408 19.8659 89.2106 19.8659C88.4653 19.8659 87.8601 19.2629 87.8601 18.5226C87.8601 17.7822 88.4653 17.1792 89.2106 17.1792C89.7258 17.1792 90.1759 17.4685 90.401 17.8901C90.406 17.895 90.406 17.9048 90.411 17.9097L90.9112 17.2625C90.516 16.7085 89.8708 16.3457 89.1356 16.3457C87.9352 16.3457 86.9648 17.3116 86.9648 18.5079C86.9648 19.6992 87.9352 20.67 89.1356 20.67C90.336 20.67 91.3063 19.7042 91.3063 18.5079C91.3063 18.4637 91.3063 18.4049 91.3013 18.3608L90.5511 18.351Z" fill="#16315E"/>
<path d="M67.8131 24.6465C64.0168 24.6465 60.9258 27.7193 60.9258 31.4978C60.9258 35.2763 64.0168 38.3491 67.8131 38.3491C71.6094 38.3491 74.7005 35.2763 74.7005 31.4978C74.7005 27.7193 71.6094 24.6465 67.8131 24.6465ZM71.9295 31.4978C71.9295 33.757 70.0839 35.5997 67.8131 35.5997C65.5423 35.5997 63.6967 33.7619 63.6967 31.4978C63.6967 29.2385 65.5423 27.3958 67.8131 27.3958C70.0839 27.3958 71.9295 29.2385 71.9295 31.4978Z" fill="#16315E"/>
<path d="M127.598 24.6465C123.802 24.6465 120.711 27.7193 120.711 31.4978C120.711 35.2763 123.802 38.3491 127.598 38.3491C131.395 38.3491 134.486 35.2763 134.486 31.4978C134.486 27.7193 131.395 24.6465 127.598 24.6465ZM131.715 31.4978C131.715 33.757 129.869 35.5997 127.598 35.5997C125.327 35.5997 123.482 33.7619 123.482 31.4978C123.482 29.2385 125.327 27.3958 127.598 27.3958C129.869 27.3958 131.715 29.2385 131.715 31.4978Z" fill="#16315E"/>
<path d="M74.4902 27.5441H78.1965V38.2376H81.1025V27.5441H84.9188V24.8438H74.4902V27.5441Z" fill="#16315E"/>
<path d="M89.1698 32.7095H94.3366V30.0778H89.1698V27.5098H95.2819V24.8438H86.2988V38.2376H95.3569V35.5716H89.1698V32.7095Z" fill="#16315E"/>
<path d="M138.761 33.3713V24.8047H135.86V38.2475H138.451L144.808 29.8917V32.6802C144.808 32.7881 144.803 32.8861 144.803 32.989L144.808 38.2573H147.249L147.499 38.2475H147.709V24.8047H145.154L138.761 33.3713Z" fill="#10CFC9"/>
<path d="M32.0306 34.772C25.2283 34.772 19.7164 29.2831 19.7164 22.5151C19.7164 15.7471 25.2283 10.2583 32.0306 10.2583C34.8515 10.2583 37.4574 11.2041 39.5331 12.7969L44.3197 6.54347C40.9286 3.95096 36.6872 2.41211 32.0806 2.41211C21.2319 2.41211 12.394 10.9542 11.9788 21.6477C3.02081 29.9447 -1.91086 38.2368 1.70036 41.7262C3.55599 43.5199 11.0535 42.4319 16.9555 39.9619C17.2856 39.8247 17.0805 39.3885 16.7254 39.4375C11.8938 40.1334 7.7424 39.6287 6.37194 37.8252C4.35125 35.1689 6.65203 29.6703 11.9838 23.3385C12.459 33.9732 21.277 42.4515 32.0806 42.4515C36.6872 42.4515 40.9286 40.9127 44.3197 38.3201L39.5931 32.1795C37.5074 33.8065 34.8866 34.772 32.0306 34.772Z" fill="#16315E"/>
<path d="M37.5421 28.9937C37.337 29.1309 37.1169 28.8417 37.307 28.68C45.2597 21.8042 55.2731 13.2915 53.8076 6.72939C52.9973 3.10281 46.9603 2.83327 43.7542 3.47037C43.224 3.57819 43.214 3.19593 43.7042 2.97049C49.286 0.422085 57.8939 -0.724699 59.7396 2.25498C62.8606 7.29298 50.9316 20.2262 37.5421 28.9937Z" fill="#16315E"/>
<path d="M58.7886 34.1246C58.0034 35.0607 56.853 35.5949 55.6276 35.5949C55.1774 35.5949 54.7473 35.5214 54.3421 35.389C52.7016 34.85 51.5112 33.3062 51.5112 31.4929C51.5112 29.6894 52.6866 28.1555 54.3121 27.6066C54.7273 27.4694 55.1674 27.391 55.6276 27.391C56.863 27.391 58.0234 27.9349 58.8086 28.8857L59.0087 29.1258L60.7043 26.8519L60.5942 26.7392C59.2838 25.3816 57.5182 24.6367 55.6276 24.6367C54.5472 24.6367 53.5269 24.8867 52.6165 25.3277C50.3258 26.4402 48.7402 28.7828 48.7402 31.488C48.7402 34.2031 50.3358 36.5505 52.6416 37.6581C53.5469 38.0943 54.5572 38.3344 55.6276 38.3344C57.5032 38.3344 59.2588 37.5944 60.5692 36.2565L60.6793 36.1438L58.9887 33.8747L58.7886 34.1246Z" fill="#16315E"/>
<path d="M106.456 34.1246C105.67 35.0607 104.52 35.5949 103.295 35.5949C102.844 35.5949 102.414 35.5214 102.009 35.389C100.369 34.85 99.1782 33.3062 99.1782 31.4929C99.1782 29.6894 100.354 28.1555 101.979 27.6066C102.394 27.4694 102.834 27.391 103.295 27.391C104.53 27.391 105.69 27.9349 106.476 28.8857L106.676 29.1258L108.371 26.8519L108.261 26.7392C106.951 25.3816 105.185 24.6367 103.295 24.6367C102.214 24.6367 101.194 24.8867 100.284 25.3277C97.9928 26.4402 96.4072 28.7828 96.4072 31.488C96.4072 34.2031 98.0028 36.5505 100.309 37.6581C101.214 38.0943 102.224 38.3344 103.295 38.3344C105.17 38.3344 106.926 37.5944 108.236 36.2565L108.346 36.1438L106.656 33.8747L106.456 34.1246Z" fill="#16315E"/>
<path d="M118.634 34.1246C117.849 35.0607 116.699 35.5949 115.473 35.5949C115.023 35.5949 114.593 35.5214 114.188 35.389C112.547 34.85 111.357 33.3062 111.357 31.4929C111.357 29.6894 112.532 28.1555 114.158 27.6066C114.573 27.4694 115.013 27.391 115.473 27.391C116.709 27.391 117.869 27.9349 118.654 28.8857L118.854 29.1258L120.55 26.8519L120.44 26.7392C119.129 25.3816 117.364 24.6367 115.473 24.6367C114.393 24.6367 113.373 24.8867 112.462 25.3277C110.171 26.4402 108.586 28.7828 108.586 31.488C108.586 34.2031 110.181 36.5505 112.487 37.6581C113.393 38.0943 114.403 38.3344 115.473 38.3344C117.349 38.3344 119.104 37.5944 120.415 36.2565L120.525 36.1438L118.834 33.8747L118.634 34.1246Z" fill="#16315E"/>
<path d="M159.229 32.5913C159.004 32.1404 158.684 31.7435 158.274 31.4151C157.874 31.0916 157.384 30.8123 156.828 30.5869C156.733 30.5477 156.638 30.5134 156.538 30.4742C156.063 30.3026 155.533 30.1556 154.968 30.0429C154.623 29.9743 154.308 29.891 154.023 29.7929C153.872 29.7439 153.732 29.6851 153.602 29.6263C153.502 29.5773 153.407 29.5283 153.322 29.4793C153.147 29.3715 153.012 29.249 152.922 29.1068C152.837 28.9745 152.797 28.8275 152.797 28.656C152.797 28.4452 152.862 28.2639 152.987 28.1071C153.122 27.9453 153.317 27.8179 153.562 27.7297C153.827 27.6366 154.153 27.5876 154.523 27.5876C154.708 27.5876 154.898 27.6072 155.078 27.6366C155.223 27.6611 155.373 27.7003 155.513 27.7444C155.833 27.8522 156.133 28.014 156.408 28.2247C156.688 28.4403 156.953 28.7148 157.194 29.0333L157.394 29.298L159.209 26.8623L159.119 26.7398C158.769 26.2693 158.649 26.1468 158.199 25.8037C157.834 25.5244 157.414 25.294 156.943 25.1225C156.828 25.0784 156.708 25.0392 156.583 25.0049C155.978 24.8284 155.263 24.7402 154.458 24.7402C153.797 24.7402 153.167 24.8382 152.572 25.0245C151.977 25.2156 151.447 25.495 150.991 25.8527C150.531 26.2154 150.166 26.6466 149.906 27.1465C149.646 27.6464 149.511 28.1953 149.511 28.7834C149.511 29.347 149.601 29.8616 149.776 30.3124C149.951 30.7682 150.226 31.1799 150.596 31.5376C150.881 31.817 151.222 32.0571 151.617 32.2678C151.727 32.3266 151.837 32.3806 151.952 32.4296C152.477 32.6599 153.097 32.8608 153.792 33.0177L153.812 33.0226C154.063 33.0618 154.293 33.1108 154.508 33.1647C154.558 33.1794 154.608 33.1892 154.658 33.2039C154.913 33.2774 155.148 33.3656 155.353 33.4636C155.553 33.5567 155.728 33.6646 155.868 33.7773C155.998 33.8851 156.103 34.0027 156.168 34.135C156.238 34.2674 156.268 34.4046 156.268 34.5614C156.268 34.7672 156.203 34.9388 156.073 35.0809C155.928 35.2377 155.728 35.3651 155.468 35.4632C155.198 35.5612 154.888 35.6102 154.538 35.6102C153.962 35.6102 153.417 35.4975 152.917 35.2818C152.852 35.2524 152.782 35.223 152.717 35.1887C152.162 34.9094 151.592 34.3703 151.021 33.5763L150.826 33.3068L148.926 35.8552L149.016 35.9777C149.446 36.5462 149.801 36.8599 150.306 37.2372C150.551 37.4186 150.816 37.5803 151.097 37.7224C151.422 37.889 151.767 38.0263 152.127 38.1341C152.802 38.335 153.557 38.4379 154.373 38.4379C155.383 38.4379 156.278 38.2664 157.044 37.9331C157.819 37.595 158.434 37.0951 158.874 36.4482C159.314 35.8013 159.539 35.0123 159.539 34.1056C159.564 33.5567 159.449 33.0471 159.229 32.5913Z" fill="#16315E"/>
</svg>
