<?xml version="1.0" encoding="UTF-8" standalone="no"?>
<!-- Created with Inkscape (http://www.inkscape.org/) -->

<svg
   width="174.56372mm"
   height="46.908337mm"
   viewBox="0 0 174.56372 46.908337"
   version="1.1"
   id="svg1"
   xml:space="preserve"
   sodipodi:docname="logo-dong-duong-xanh.svg"
   inkscape:version="1.4.2 (f4327f4, 2025-05-13)"
   xmlns:inkscape="http://www.inkscape.org/namespaces/inkscape"
   xmlns:sodipodi="http://sodipodi.sourceforge.net/DTD/sodipodi-0.dtd"
   xmlns="http://www.w3.org/2000/svg"
   xmlns:svg="http://www.w3.org/2000/svg"><sodipodi:namedview
     id="namedview1"
     pagecolor="#ffffff"
     bordercolor="#000000"
     borderopacity="0.25"
     inkscape:showpageshadow="2"
     inkscape:pageopacity="0.0"
     inkscape:pagecheckerboard="0"
     inkscape:deskcolor="#d1d1d1"
     inkscape:document-units="mm"
     showgrid="false"
     inkscape:zoom="4.5409875"
     inkscape:cx="329.9943"
     inkscape:cy="106.25442"
     inkscape:window-width="1866"
     inkscape:window-height="1240"
     inkscape:window-x="61"
     inkscape:window-y="316"
     inkscape:window-maximized="0"
     inkscape:current-layer="svg1" /><defs
     id="defs1" /><g
     id="layer1"
     transform="translate(-14.545239,-119.00331)"
     style="fill:#001f3f;fill-opacity:1.0"><g
       id="Layer1000"
       transform="matrix(1.0569964,0,0,1.0569964,-108.05279,-8.0681621)"
       style="fill:#001f3f;fill-opacity:1.0"><g
         id="Layer1001"
         style="fill:#001f3f;fill-opacity:1.0"><path
           d="m 227.5825,152.387 -0.0248,-7.7564 c -0.004,-1.2925 -0.3108,-2.2088 -0.9197,-2.7484 -0.294,-0.2486 -0.4418,-0.6235 -0.4434,-1.1236 -0.002,-0.7924 0.2885,-1.3362 0.8742,-1.6302 0.3345,-0.1683 0.8053,-0.254 1.4127,-0.257 l 0.1574,-6e-4 c 0.5967,-0.003 1.0574,0.0683 1.3828,0.2126 0.6292,0.2684 0.945,0.7984 0.9475,1.5908 0.002,0.4797 -0.1908,0.9289 -0.577,1.3475 -0.3862,0.4186 -0.5775,1.1391 -0.574,2.1609 l 0.0274,8.4446 c 0.004,1.126 -0.0562,2.1064 -0.1792,2.9413 -0.246,1.6691 -0.7127,3.0053 -1.4006,4.0097 -0.9171,1.3385 -2.1926,2.0111 -3.826,2.0189 -1.5393,0.007 -2.7667,-0.5612 -3.6813,-1.7039 -0.7254,-0.893 -1.2427,-2.1213 -1.5509,-3.6833 -0.2131,-1.0625 -0.3214,-2.1986 -0.3255,-3.4078 l 0.0284,-1.0637 -0.0243,-7.3815 c -0.001,-0.563 -0.2288,-1.25 -0.6818,-2.0609 -0.2212,-0.3953 -0.3326,-0.7912 -0.3336,-1.187 l -0.0319,-0.1252 c -0.002,-0.6882 0.2658,-1.205 0.8038,-1.5518 0.5381,-0.3462 1.3049,-0.5216 2.2995,-0.5264 1.1935,-0.005 2.0267,0.1886 2.4994,0.5827 0.3882,0.3318 0.5836,0.8421 0.5862,1.5302 0.002,0.6049 -0.201,1.0745 -0.6084,1.4105 -0.407,0.3354 -0.6085,1.2014 -0.6039,2.5986 l 0.0187,5.755 c 0.006,1.9183 0.202,3.4078 0.5877,4.4696 0.3857,1.0619 0.9814,1.5907 1.7877,1.5872 0.7643,-0.004 1.352,-0.3869 1.7635,-1.1494 0.411,-0.763 0.6145,-1.8015 0.6104,-3.1149 z m 10.0509,9.1502 c -1.6754,0.008 -3.0821,-1.0702 -4.2199,-3.2335 -1.1378,-2.1633 -1.7123,-4.9135 -1.723,-8.2494 -0.0106,-3.2737 0.5644,-5.9819 1.725,-8.1242 1.1607,-2.1423 2.6052,-3.218 4.3328,-3.2258 1.3302,-0.006 2.4893,0.6978 3.4783,2.1112 0.8311,1.1846 1.48,2.746 1.9472,4.6829 0.4034,1.6871 0.6074,3.2916 0.6125,4.814 0.0101,3.2737 -0.6095,5.9873 -1.8587,8.1404 -1.1874,2.0489 -2.6188,3.0772 -4.2942,3.0844 z m 2.1107,-8.0164 c -0.007,-1.9602 -0.2278,-4.0025 -0.6641,-6.1275 -0.5533,-2.6663 -1.2325,-3.9977 -2.0388,-3.9941 -0.4085,0.002 -0.7294,0.3474 -0.9628,1.0367 -0.2333,0.6888 -0.3487,1.4506 -0.3462,2.2849 0.006,1.8344 0.2379,3.8563 0.695,6.0645 0.5638,2.7083 1.2224,4.0606 1.9765,4.057 0.4399,-0.002 0.774,-0.3264 1.0022,-0.9744 0.2283,-0.6474 0.3407,-1.4296 0.3382,-2.3471 z m 9.3811,-13.3665 3.7593,6.4886 c 0.1893,0.312 0.3366,0.5408 0.4419,0.6863 0.2419,0.3324 0.4206,0.4983 0.5355,0.4977 0.1989,-6e-4 0.3239,-0.3246 0.374,-0.9708 0.0203,-0.2503 0.0299,-0.5318 0.0289,-0.8451 -0.002,-0.4791 -0.0167,-0.9953 -0.0445,-1.5475 -0.0279,-0.5528 -0.0714,-0.9906 -0.1296,-1.3135 -0.0587,-0.3228 -0.246,-0.6659 -0.5614,-1.0295 -0.3153,-0.3635 -0.4737,-0.8582 -0.4757,-1.4835 -0.003,-0.7714 0.2363,-1.3044 0.7172,-1.5985 0.3032,-0.1886 0.7324,-0.2845 1.2872,-0.2868 l 0.5967,-0.003 c 0.5553,-0.002 0.9901,0.1 1.3049,0.3066 0.493,0.3318 0.741,0.8936 0.7435,1.6859 0.002,0.6463 -0.1427,1.1164 -0.4353,1.4093 -0.3548,0.3773 -0.5734,0.7636 -0.6559,1.1601 -0.0922,0.5635 -0.1448,1.3044 -0.1575,2.2213 -0.0131,0.9175 -0.0187,1.5955 -0.0172,2.0333 l 0.0289,8.9453 c 0.004,1.2925 -0.0451,2.325 -0.1468,3.097 -0.1534,1.1895 -0.4237,1.7848 -0.8114,1.7866 -0.1361,6e-4 -0.2773,-0.0821 -0.4246,-0.2486 -0.0527,-0.0623 -0.1843,-0.2491 -0.3948,-0.5612 l -4.8658,-8.6728 c -0.1786,-0.2911 -0.3259,-0.5198 -0.4418,-0.6863 -0.2207,-0.2905 -0.3994,-0.436 -0.5356,-0.4354 -0.1989,10e-4 -0.3315,0.2934 -0.3978,0.878 -0.0658,0.5839 -0.0982,1.1888 -0.0962,1.8141 0.002,0.6462 0.0117,1.1571 0.0284,1.5326 0.0172,0.3749 0.0577,0.8492 0.1225,1.4224 0.0647,0.5731 0.2576,1.0361 0.578,1.3895 0.3204,0.3527 0.4814,0.7797 0.4829,1.2798 0.003,0.9176 -0.2931,1.5656 -0.8889,1.9435 -0.3973,0.2521 -0.8837,0.3791 -1.4597,0.3821 -0.5862,0.002 -1.0685,-0.1102 -1.4461,-0.3378 -0.6084,-0.3725 -0.9141,-1.0074 -0.9172,-1.9039 -0.001,-0.542 0.162,-1.0116 0.4905,-1.4099 0.3285,-0.3976 0.5178,-0.9193 0.5679,-1.5661 0.0506,-0.6468 0.0876,-1.3925 0.1108,-2.2369 0.0233,-0.8445 0.034,-1.6944 0.0309,-2.549 l -0.002,-0.8445 c -0.005,-1.5434 -0.0218,-2.7106 -0.0506,-3.503 -0.0289,-0.7924 -0.084,-1.668 -0.1655,-2.6262 -0.0815,-0.9589 -0.4166,-1.75 -1.0053,-2.3729 -0.252,-0.2695 -0.3791,-0.6756 -0.3806,-1.2182 -0.003,-0.8337 0.3093,-1.4188 0.9364,-1.7554 0.3973,-0.2102 0.9313,-0.3168 1.6015,-0.3198 l 0.2824,-0.002 c 0.4925,-0.002 0.8382,0.0695 1.0377,0.2144 0.1994,0.1449 0.4727,0.5294 0.8204,1.1535 z m 13.5652,7.9457 c 0.01,2.8772 0.373,5.1381 1.0902,6.7821 0.5695,1.311 1.1789,1.965 1.8283,1.962 0.2723,-0.001 0.497,-0.179 0.6737,-0.5342 0.1766,-0.3557 0.2642,-0.8253 0.2627,-1.4086 -0.003,-0.8553 -0.2769,-1.3128 -0.8215,-1.3727 -0.5447,-0.0599 -0.8185,-0.5804 -0.8215,-1.5602 -0.004,-1.0008 0.4186,-1.7015 1.2654,-2.1016 0.4915,-0.2311 1.1247,-0.3485 1.8991,-0.3521 1.2988,-0.006 2.1846,0.2922 2.6578,0.8947 0.3048,0.3947 0.4586,0.9469 0.4606,1.6554 10e-4,0.3756 -0.0683,0.7044 -0.209,0.9864 -0.1402,0.2821 -0.3098,0.4552 -0.5087,0.5187 -0.1883,6e-4 -0.3113,0.0689 -0.3685,0.2048 -0.0572,0.136 -0.1108,0.4229 -0.1619,0.8607 -0.2967,2.1908 -0.9299,3.8929 -1.8997,5.1069 -0.8868,1.1092 -1.932,1.6661 -3.1361,1.6715 -1.7174,0.008 -3.1762,-1.0385 -4.3768,-3.1389 -1.2639,-2.2046 -1.9012,-4.9853 -1.9118,-8.3422 -0.0106,-3.2527 0.5826,-5.9562 1.7802,-8.1092 1.1971,-2.1531 2.6543,-3.2336 4.3717,-3.2413 0.4819,-0.002 0.9167,0.0796 1.3044,0.2443 0.409,0.2066 0.8235,0.4139 1.2431,0.6199 0.0942,0 0.2561,-0.0845 0.4859,-0.2522 0.2298,-0.1676 0.3918,-0.2521 0.4864,-0.2521 0.4394,-0.002 0.8185,0.5905 1.1364,1.7776 0.2758,1.0205 0.415,2.0309 0.4181,3.0317 0.003,0.8552 -0.0891,1.5541 -0.2759,2.0967 -0.2176,0.6475 -0.531,0.9721 -0.9394,0.9739 -0.4713,0.002 -1.0179,-0.7145 -1.6405,-2.1507 -0.6221,-1.4356 -1.3155,-2.1519 -2.0803,-2.1483 -0.6702,0.003 -1.2077,0.5163 -1.6126,1.5398 -0.405,1.0235 -0.6049,2.3693 -0.5998,4.0372 z"
           style="fill:#001f3f;fill-opacity:1.0;fill-rule:evenodd"
           id="path1" /><path
           d="m 117.2612,155.6894 0.0907,-10.8846 c -0.004,-1.1055 -0.1944,-1.8554 -0.5725,-2.2495 -0.3781,-0.3947 -0.5684,-0.8732 -0.57,-1.4362 -0.002,-0.6258 0.1691,-1.0744 0.5138,-1.3475 0.2404,-0.1887 0.5487,-0.2839 0.9258,-0.2857 l 5.1203,-0.0227 c 2.0317,-0.01 3.5482,1.1097 4.5504,3.3569 0.8544,1.9147 1.2866,4.4564 1.2968,7.6259 0.0106,3.1904 -0.4313,5.8094 -1.3252,7.8565 -1.0082,2.319 -2.4498,3.4833 -4.3241,3.4916 -0.5026,0.002 -1.0837,-0.0263 -1.7437,-0.0862 -0.6601,-0.0593 -1.105,-0.0886 -1.3353,-0.0874 -0.4505,0.002 -1.0052,0.0359 -1.6647,0.1012 -0.6596,0.0653 -0.9946,0.0982 -1.0053,0.0982 -0.293,0.001 -0.5603,-0.1431 -0.8022,-0.4342 -0.284,-0.3534 -0.4267,-0.8115 -0.4288,-1.3745 -0.002,-0.6043 0.1281,-0.9804 0.3893,-1.1278 0.5957,-0.3569 0.8908,-1.4218 0.8847,-3.194 z m 3.86,-11.0894 0.0375,11.635 c 0.003,0.8757 0.0648,1.4698 0.1863,1.7818 0.1214,0.312 0.3862,0.4672 0.7946,0.4654 0.8904,-0.004 1.521,-0.799 1.8931,-2.3855 0.2789,-1.1691 0.415,-2.7544 0.4084,-4.7559 -0.0106,-3.3156 -0.2956,-5.6496 -0.8549,-7.0025 -0.4115,-0.999 -0.9941,-1.4967 -1.7482,-1.4931 -0.3144,0.001 -0.5128,0.1222 -0.5958,0.3623 -0.083,0.2402 -0.1235,0.7044 -0.121,1.3925 z m 14.4125,17.3876 c -1.6754,0.007 -3.0821,-1.0703 -4.2199,-3.2341 -1.1379,-2.1633 -1.7123,-4.9129 -1.723,-8.2494 -0.0106,-3.2737 0.5644,-5.9813 1.725,-8.1242 1.1606,-2.1424 2.6047,-3.2174 4.3328,-3.2252 1.3296,-0.006 2.4893,0.6977 3.4778,2.1112 0.8311,1.1846 1.48,2.7454 1.9472,4.6823 0.4034,1.6871 0.6074,3.2922 0.6124,4.814 0.0107,3.2736 -0.6089,5.9873 -1.8586,8.1404 -1.1869,2.0489 -2.6184,3.0772 -4.2937,3.085 z m 2.1101,-8.0164 c -0.006,-1.9603 -0.2272,-4.0026 -0.6635,-6.1275 -0.5533,-2.6663 -1.233,-3.9983 -2.0394,-3.9941 -0.4084,0.002 -0.7293,0.3473 -0.9627,1.0361 -0.2333,0.6893 -0.3487,1.4512 -0.3457,2.2848 0.006,1.8351 0.2374,3.8564 0.695,6.0646 0.5633,2.7083 1.2224,4.0606 1.9765,4.057 0.4399,-0.002 0.7734,-0.3264 1.0017,-0.9738 0.2283,-0.6474 0.3412,-1.4302 0.3381,-2.3471 z m 9.3812,-13.3665 3.7593,6.4886 c 0.1898,0.3114 0.3371,0.5402 0.4424,0.6857 0.2414,0.3324 0.4201,0.4989 0.5355,0.4983 0.1989,-0.001 0.3234,-0.3246 0.3735,-0.9714 0.0203,-0.2504 0.0299,-0.5318 0.0289,-0.8445 -0.002,-0.4797 -0.0162,-0.996 -0.0441,-1.5482 -0.0283,-0.5522 -0.0713,-0.99 -0.13,-1.3128 -0.0588,-0.3228 -0.2455,-0.6666 -0.5609,-1.0295 -0.3153,-0.3635 -0.4742,-0.8582 -0.4763,-1.4835 -0.003,-0.772 0.2369,-1.3044 0.7178,-1.5985 0.3027,-0.1892 0.7319,-0.2851 1.2866,-0.2875 l 0.5973,-0.002 c 0.5548,-0.003 0.9896,0.0995 1.3044,0.3067 0.4935,0.3312 0.741,0.893 0.744,1.6853 0.002,0.6468 -0.1432,1.1164 -0.4353,1.4098 -0.3548,0.3768 -0.5734,0.7637 -0.6559,1.1601 -0.0927,0.5636 -0.1453,1.3039 -0.158,2.2214 -0.0126,0.9175 -0.0182,1.5949 -0.0172,2.0333 l 0.0289,8.9447 c 0.004,1.2931 -0.0446,2.3256 -0.1468,3.0976 -0.1534,1.1888 -0.4237,1.7842 -0.8109,1.7859 -0.1361,6e-4 -0.2779,-0.082 -0.4252,-0.2479 -0.0526,-0.0623 -0.1837,-0.2497 -0.3943,-0.5612 l -4.8657,-8.6734 c -0.1792,-0.2911 -0.3265,-0.5199 -0.4424,-0.6858 -0.2206,-0.291 -0.3993,-0.436 -0.5355,-0.4354 -0.1989,6e-4 -0.3315,0.2935 -0.3973,0.8774 -0.0663,0.584 -0.0982,1.1889 -0.0962,1.8147 0.002,0.6463 0.0111,1.1571 0.0284,1.5321 0.0167,0.3755 0.0577,0.8498 0.1224,1.423 0.0648,0.5725 0.2572,1.0361 0.5776,1.3888 0.3204,0.3534 0.4818,0.7798 0.4834,1.2805 0.003,0.9169 -0.2936,1.565 -0.8894,1.9429 -0.3968,0.2521 -0.8832,0.3797 -1.4592,0.3821 -0.5867,0.002 -1.0685,-0.1096 -1.4461,-0.3378 -0.6084,-0.3725 -0.9147,-1.0068 -0.9172,-1.9033 -0.002,-0.5427 0.1615,-1.0122 0.49,-1.4099 0.3285,-0.3977 0.5183,-0.9199 0.5684,-1.5661 0.0501,-0.6469 0.0871,-1.3925 0.1103,-2.237 0.0238,-0.845 0.0339,-1.6943 0.0314,-2.5495 l -0.003,-0.8445 c -0.005,-1.5428 -0.0218,-2.7107 -0.0506,-3.5024 -0.0284,-0.7924 -0.0836,-1.668 -0.1656,-2.6268 -0.0814,-0.9589 -0.4165,-1.7495 -1.0047,-2.3723 -0.2526,-0.2701 -0.3791,-0.6762 -0.3811,-1.2182 -0.002,-0.8343 0.3098,-1.4194 0.9369,-1.756 0.3973,-0.2102 0.9308,-0.3168 1.601,-0.3198 l 0.2829,-0.001 c 0.492,-0.002 0.8377,0.0688 1.0371,0.2144 0.1995,0.1449 0.4733,0.5294 0.8205,1.1535 z m 13.5656,7.9451 c 0.009,2.8778 0.3726,5.1387 1.0898,6.7827 0.5699,1.311 1.1794,1.965 1.8283,1.962 0.2723,-0.001 0.497,-0.1797 0.6737,-0.5348 0.1771,-0.3552 0.2647,-0.8247 0.2627,-1.4086 -0.003,-0.8547 -0.2764,-1.3123 -0.8215,-1.3727 -0.5447,-0.0599 -0.8185,-0.5798 -0.8215,-1.5602 -0.004,-1.0008 0.4186,-1.7009 1.2654,-2.101 0.4914,-0.2318 1.1247,-0.3492 1.8996,-0.3527 1.2983,-0.006 2.1841,0.2922 2.6573,0.8953 0.3047,0.3947 0.4586,0.9463 0.4606,1.6554 0.002,0.3755 -0.0683,0.7037 -0.2085,0.9864 -0.1407,0.2821 -0.3103,0.4546 -0.5092,0.5181 -0.1883,6e-4 -0.3113,0.0695 -0.3685,0.2048 -0.0567,0.136 -0.1108,0.4228 -0.162,0.8612 -0.2966,2.1903 -0.9298,3.893 -1.8996,5.1064 -0.8868,1.1091 -1.932,1.6667 -3.1362,1.6721 -1.7174,0.008 -3.1761,-1.0385 -4.3767,-3.1395 -1.2639,-2.2046 -1.9012,-4.9853 -1.9118,-8.3422 -0.0106,-3.2527 0.5831,-5.9556 1.7802,-8.1087 1.197,-2.153 2.6543,-3.2335 4.3717,-3.2413 0.4819,-0.002 0.9166,0.0791 1.3044,0.2444 0.4094,0.2066 0.8235,0.4132 1.2431,0.6199 0.0941,-6e-4 0.2561,-0.0845 0.4859,-0.2528 0.2298,-0.1677 0.3923,-0.2515 0.4864,-0.2521 0.4399,-0.002 0.8185,0.5905 1.1364,1.7776 0.2758,1.0205 0.415,2.0315 0.4186,3.0322 0.002,0.8547 -0.0896,1.5536 -0.2764,2.0968 -0.2177,0.6474 -0.531,0.9721 -0.9389,0.9739 -0.4713,0.002 -1.0184,-0.7151 -1.6405,-2.1507 -0.6226,-1.4362 -1.316,-2.1525 -2.0803,-2.1489 -0.6702,0.003 -1.2082,0.5162 -1.6132,1.5398 -0.4049,1.0235 -0.6048,2.3693 -0.5993,4.0372 z"
           style="fill:#001f3f;fill-opacity:1.0;fill-rule:evenodd"
           id="path2" /><path
           d="m 215.7446,125.6599 c -1.399,3.3576 -3.7073,7.096 -6.925,11.2074 4.6322,3.824 6.9483,7.8888 6.9483,12.179 0,4.0959 -1.5155,7.3913 -4.5466,9.8706 -3.0234,2.4794 -7.0183,3.7228 -11.9847,3.7228 -2.3239,0 -4.5623,-0.1787 -6.7073,-0.544 -2.1451,-0.3653 -4.2126,-0.9016 -6.1789,-1.6166 -1.9585,1.3679 -3.785,2.3938 -5.4793,3.0855 -1.6943,0.6918 -3.2488,1.0337 -4.6788,1.0337 -1.4457,0 -2.6037,-0.3731 -3.4975,-1.1192 -0.886,-0.7383 -1.329,-1.7176 -1.329,-2.93 0,-1.5855 0.6839,-2.868 2.0518,-3.855 1.3601,-0.9871 3.1322,-1.4767 5.3006,-1.4767 1.0026,0 2.114,0.1243 3.3342,0.3731 1.228,0.2565 2.557,0.6295 3.9949,1.1269 6.8784,-5.9767 12.1245,-11.5882 15.7386,-16.8344 3.614,-5.2462 6.7617,-11.7981 9.4508,-19.6636 z m -18.3111,14.4873 c -0.7384,-2.1684 -1.7876,-3.9016 -3.1322,-5.1918 -1.3368,-1.2902 -2.7669,-1.9352 -4.2902,-1.9352 -1.5777,0 -2.829,0.6762 -3.7462,2.0363 -0.9171,1.3601 -1.3757,3.2021 -1.3757,5.526 0,3.6995 0.956,7.057 2.868,10.0571 l -2.5726,2.3938 c -2.8213,-4.298 -4.2358,-8.8136 -4.2358,-13.5468 0,-3.3109 0.8471,-5.9845 2.5493,-8.0286 1.702,-2.0441 3.9326,-3.0623 6.6995,-3.0623 4.2047,0 7.6245,2.4094 10.267,7.2203 z m 9.381,-0.5285 c -3.9716,6.381 -9.6842,12.4742 -17.1221,18.2878 1.4146,0.3886 2.7902,0.6918 4.1193,0.8938 1.3368,0.2099 2.6347,0.3109 3.8937,0.3109 3.8862,0 7.0417,-1.0026 9.4665,-3.0078 2.4172,-1.9975 3.6297,-4.6089 3.6297,-7.8266 0,-3.3575 -1.3291,-6.2409 -3.9871,-8.6581 z"
           style="fill:#001f3f;fill-opacity:1.0;fill-rule:evenodd"
           id="path3" /></g><g
         id="Layer1002"
         style="fill:#001f3f;fill-opacity:1.0"><path
           d="m 277.3149,134.8648 h -1.7574 l -1.5964,-2.4903 h -0.5183 v 2.4903 h -1.434 v -6.7893 h 2.3086 c 0.3184,0 0.5958,0.0234 0.8312,0.0701 0.2368,0.0485 0.455,0.1461 0.6549,0.2941 0.2065,0.1557 0.3695,0.3521 0.4895,0.5917 0.121,0.2378 0.1817,0.5414 0.1817,0.9085 0,0.5199 -0.0987,0.9415 -0.2961,1.2655 -0.1989,0.324 -0.4631,0.5804 -0.7947,0.772 z m -2.3202,-4.7099 c 0,-0.1694 -0.0279,-0.3174 -0.083,-0.4402 -0.0552,-0.1233 -0.1473,-0.218 -0.2749,-0.285 -0.0906,-0.045 -0.1908,-0.0731 -0.3011,-0.0857 -0.1104,-0.0126 -0.2471,-0.0185 -0.4116,-0.0185 h -0.4813 v 1.8272 h 0.4115 c 0.2014,0 0.371,-0.0143 0.5102,-0.0437 0.1407,-0.0281 0.2592,-0.0904 0.3569,-0.1839 0.0916,-0.0856 0.1614,-0.1868 0.2065,-0.306 0.0445,-0.1186 0.0668,-0.2725 0.0668,-0.4642 z"
           style="fill:#001f3f;fill-opacity:1.0;fill-rule:evenodd"
           id="path4" /><path
           d="m 274.2962,124.6286 c 3.7681,0 6.8417,3.0736 6.8417,6.8417 0,3.7681 -3.0736,6.8417 -6.8417,6.8417 -3.7681,0 -6.8417,-3.0736 -6.8417,-6.8417 0,-3.7681 3.0736,-6.8417 6.8417,-6.8417 z m 0,1.2217 c 3.0949,0 5.62,2.5248 5.62,5.62 0,3.0949 -2.5251,5.62 -5.62,5.62 -3.0952,0 -5.62,-2.5251 -5.62,-5.62 0,-3.0952 2.5248,-5.62 5.62,-5.62 z"
           style="fill:#001f3f;fill-opacity:1.0;fill-rule:evenodd"
           id="path5" /></g></g></g></svg>
